<svg xmlns="http://www.w3.org/2000/svg" viewBox="0 0 1024 1024"><defs><style>.cls-1{fill:#2f2e2e;}.cls-2{fill:#f53434;}</style></defs><title>logo-svg</title><g id="Layer_2" data-name="Layer 2"><g id="Layer_1-2" data-name="Layer 1"><rect class="cls-1" width="1024" height="1024" rx="84"/><path class="cls-2" d="M295.35,197.36c3.82,1.31,65.2,22.58,97.65,47.9,0,0,13.07-24.1,40.35-45.08C433.35,200.18,327.76,201.59,295.35,197.36Zm21.38,70.89c23.28-.29,28.44,4.59,28.44,4.59-18.68,30.21-12.09,55.47-12.09,55.47,15.81-39.08,46-68.41,46-68.41C345.47,258.53,316.73,268.25,316.73,268.25Zm0,0c23.28-.29,28.44,4.59,28.44,4.59-18.68,30.21-12.09,55.47-12.09,55.47,15.81-39.08,46-68.41,46-68.41C345.47,258.53,316.73,268.25,316.73,268.25Zm-21.38-70.89c3.82,1.31,65.2,22.58,97.65,47.9,0,0,13.07-24.1,40.35-45.08C433.35,200.18,327.76,201.59,295.35,197.36Zm21.38,70.89c23.28-.29,28.44,4.59,28.44,4.59-18.68,30.21-12.09,55.47-12.09,55.47,15.81-39.08,46-68.41,46-68.41C345.47,258.53,316.73,268.25,316.73,268.25Zm-21.38-70.89c3.82,1.31,65.2,22.58,97.65,47.9,0,0,13.07-24.1,40.35-45.08C433.35,200.18,327.76,201.59,295.35,197.36Zm21.38,70.89c23.28-.29,28.44,4.59,28.44,4.59-18.68,30.21-12.09,55.47-12.09,55.47,15.81-39.08,46-68.41,46-68.41C345.47,258.53,316.73,268.25,316.73,268.25Zm-21.38-70.89c3.82,1.31,65.2,22.58,97.65,47.9,0,0,13.07-24.1,40.35-45.08C433.35,200.18,327.76,201.59,295.35,197.36Zm21.38,70.89c23.28-.29,28.44,4.59,28.44,4.59-18.68,30.21-12.09,55.47-12.09,55.47,15.81-39.08,46-68.41,46-68.41C345.47,258.53,316.73,268.25,316.73,268.25Zm-21.38-70.89c3.82,1.31,65.2,22.58,97.65,47.9,0,0,13.07-24.1,40.35-45.08C433.35,200.18,327.76,201.59,295.35,197.36Z"/><path class="cls-2" d="M872.64,618.65c-1.45-.65-3.11-1.33-4.94-2L865.12,591s-.46,9.77-10.33,21.55c-10.78-3.1-24.09-6.28-37.93-9.28l-3-33.13s-.77,13.53-15,29.36c-33.42-6.77-64.9-12-66.7-12.3l4.82-29s-1.17-18.48,59.14-39.43a124,124,0,0,0,16.32-7.43A55.41,55.41,0,0,1,814,524.28l6.61-17.58c21.73-13.39,50-38.6,49.26-78.85,0,0-33.77-33.8-62.76-32.59,0,0,24.16-8.44,24.16-19.32,0,0-44.6-13.27-65.15-4.88.54-1.13,10-19.37,60.32-22.88,0,0,42.25,0,50.69,13.27,0,0,10.83-13.27,33.77-13.27,0,0-108.62-80.85-127.94-85.69s33.82-3.65,45.87,7.22c0,0-33.78-48.25-62.76-56.74,0,0,1.23-53,13.23-72.38-1.46.66-24.35,11.58-32.55,35,0,0,7.29-62-7.22-84.51S589.79,7.77,589.79,7.77,555-1.7,507.72,19.89c0,0,55.5,16.23,62.78,29.21-1-.32-65-20.73-129.49-20.73-191.2,0-309.79,145.36-313.51,316.19,0,0,45.87-89.34,74.85-108.65,0,0-109.83,185.9-114.67,288.52,0,0-1.8,163.73,242.61,301.74,38,21.45,72.37,48.65,78.42,89.69l4.49-115.07S139.12,626,193.92,532.86c8.61,8.61-11.58,95.22,270.37,263.11,25.77,15.35,127.94,88.13,175,220.89,0,0,51.87-89.29,54.32-175,0,0,14.48-161.7-201.58-271.53,0,0,14.49,64,43.43,92.89,0,0-107.39-65.13-112.23-208.8,0,0,3.61-104.84,92.76-205-2.24,4.73-42.8,89.24-33.52,136.17,0,0-11,76,44.55,83.31s48.3-43.49,150.83-88.07C611.05,501.7,503,566.63,626.7,618.77c37.72,23.85,112.68,40.86,64.11,138.66,30.21-2.07,70.69-24.9,91.45-54,13.06,10.75-27,68.5-27,68.5s55.74-13.84,71.6-27c24.67-20.44,63.53-89.81,51.26-120.62A10.55,10.55,0,0,0,872.64,618.65ZM721.15,188l-35.53-8.82c-8-26.41-98.76-87.7-100.66-89.85C672.79,118.65,721.15,188,721.15,188ZM377.92,602.94c-8.93-72.67,18.63-122.38,18.63-122.38-1.69,129.36,64.52,243.58,64.52,243.58C264,571,304.58,391.7,304.58,391.7c-25,20.44-28.84,125.6-28.84,125.6s-6-18.65-7.08-68.95,32.07-102.72,32.07-102.72-39.09-50.64-36.6-108.7,19-57.35,19-57.35C443.4,189,522,166.9,522,166.9,218.56,368.91,377.92,602.94,377.92,602.94Zm107.15-484.6s65.73.31,100.28,30.94c12.83,11.4,53.82,8.45,53.82,8.45l15.47,15.17c-30.94-6.33-89.35-6.68-89.35-6.68Zm90.08,173.82c22.5-38.69,43.09-49.78,43.09-49.78s54.2,20.79,76.28,17.3c.35,0,7.34,14.67,7.34,14.67L715,276c6.58,1.53-2.27,15.83-2.27,15.83L750.81,328C681.47,302.67,575.15,292.16,575.15,292.16Z"/><path class="cls-2" d="M929.09,407.44c-.91,34.91-39.6,101.61-39.6,101.61a14,14,0,0,0-2-6.21L873.24,521c.21-.59,5.54-15.07-.13-29.57a49.51,49.51,0,0,0-5.84-2.28l1.82-11.8c11.78-9.06,13.14-54.41,13.14-54.41,23.58.46,34.73-49.42,34.73-49.42h11.85Z"/></g></g></svg>